<?xml version="1.0" encoding="UTF-8" standalone="no"?><!DOCTYPE svg PUBLIC "-//W3C//DTD SVG 1.1//EN" "http://www.w3.org/Graphics/SVG/1.1/DTD/svg11.dtd"><svg width="100%" height="100%" viewBox="0 0 4167 4167" version="1.1" xmlns="http://www.w3.org/2000/svg" xmlns:xlink="http://www.w3.org/1999/xlink" xml:space="preserve" xmlns:serif="http://www.serif.com/" style="fill-rule:evenodd;clip-rule:evenodd;stroke-linecap:round;stroke-linejoin:round;stroke-miterlimit:1.5;"><g id="Logo-Sora-Update" serif:id="Logo Sora Update"><rect x="1159.49" y="348.401" width="20.064" height="3513.49" style="stroke:#000;stroke-width:125px;"/><g id="Circle"><circle cx="2342.13" cy="3014.39" r="880.407"/><path d="M2342.13,2116.02c495.826,0 898.374,402.549 898.374,898.375c0,495.826 -402.548,898.375 -898.374,898.375c-495.827,-0 -898.375,-402.549 -898.375,-898.375c0,-495.826 402.548,-898.375 898.375,-898.375Zm-0,22.23c483.558,-0 876.145,392.587 876.145,876.145c0,483.558 -392.587,876.145 -876.145,876.145c-483.558,0 -876.146,-392.587 -876.146,-876.145c0,-483.558 392.588,-876.145 876.146,-876.145Z"/></g><path d="M3008.44,1926.62c-825.798,29.173 -1498.46,-84.196 -1498.46,-784.369c0,-700.172 666.486,-821.431 1498.46,-784.368l0,1568.74Z" style="fill:none;stroke:#000;stroke-width:133.33px;stroke-linecap:butt;"/></g></svg>