<?xml version="1.0" encoding="UTF-8" standalone="no"?><!DOCTYPE svg PUBLIC "-//W3C//DTD SVG 1.1//EN" "http://www.w3.org/Graphics/SVG/1.1/DTD/svg11.dtd"><svg width="100%" height="100%" viewBox="0 0 1000 1000" version="1.1" xmlns="http://www.w3.org/2000/svg" xmlns:xlink="http://www.w3.org/1999/xlink" xml:space="preserve" xmlns:serif="http://www.serif.com/" style="fill-rule:evenodd;clip-rule:evenodd;stroke-linecap:round;stroke-linejoin:round;stroke-miterlimit:1.5;"><path d="M1000,220.097l0,559.806c0,121.475 -112.021,220.097 -250,220.097l-500,0c-137.979,0 -250,-98.622 -250,-220.097l0,-559.806c0,-121.475 112.021,-220.097 250,-220.097l500,0c137.979,0 250,98.622 250,220.097Z" style="fill:#fff;"/><g id="Logo-Sora-Update" serif:id="Logo Sora Update"><rect x="278.278" y="83.616" width="4.815" height="843.236" style="stroke:#000;stroke-width:30px;"/><g id="Circle"><circle cx="562.112" cy="723.455" r="211.298"/><path d="M562.112,507.845c118.998,-0 215.61,96.611 215.61,215.61c-0,118.998 -96.612,215.609 -215.61,215.609c-118.999,0 -215.61,-96.611 -215.61,-215.609c-0,-118.999 96.611,-215.61 215.61,-215.61Zm-0,5.335c116.054,-0 210.275,94.221 210.275,210.275c-0,116.053 -94.221,210.274 -210.275,210.274c-116.054,0 -210.275,-94.221 -210.275,-210.274c-0,-116.054 94.221,-210.275 210.275,-210.275Z"/></g><path d="M722.025,462.389c-198.192,7.001 -359.63,-20.207 -359.63,-188.249c0,-168.041 159.957,-197.143 359.63,-188.248l-0,376.497Z" style="fill:none;stroke:#000;stroke-width:32px;stroke-linecap:butt;"/></g></svg>